<svg width="88" height="72" viewBox="0 0 88 72" fill="none" xmlns="http://www.w3.org/2000/svg">
<path d="M85.5555 31.5H81.0483C79.7038 28.6875 77.7482 26.1984 75.3342 24.1172L78.2218 13.5H73.3328C68.8409 13.5 64.8685 15.3984 62.1795 18.3234C61.0184 18.1688 59.8725 18 58.6655 18H39.1092C27.2837 18 17.4292 25.7344 15.1527 36H8.55245C6.29125 36 4.50368 34.1016 4.96203 31.95C5.29815 30.3469 6.93294 29.25 8.70523 29.25H8.85801C9.3622 29.25 9.77472 28.8703 9.77472 28.4062V25.5938C9.77472 25.1297 9.3622 24.75 8.85801 24.75C4.50368 24.75 0.622969 27.6188 0.0729476 31.5844C-0.599301 36.3937 3.46475 40.5 8.55245 40.5H14.6638C14.6638 47.8406 18.5445 54.2953 24.442 58.4016V69.75C24.442 70.9875 25.542 72 26.8865 72H36.6647C38.0092 72 39.1092 70.9875 39.1092 69.75V63H58.6655V69.75C58.6655 70.9875 59.7656 72 61.1101 72H70.8882C72.2327 72 73.3328 70.9875 73.3328 69.75V58.4016C75.1356 57.15 76.7398 55.6734 78.1149 54H85.5555C86.9 54 88 52.9875 88 51.75V33.75C88 32.5125 86.9 31.5 85.5555 31.5ZM65.9991 40.5C64.6546 40.5 63.5546 39.4875 63.5546 38.25C63.5546 37.0125 64.6546 36 65.9991 36C67.3436 36 68.4437 37.0125 68.4437 38.25C68.4437 39.4875 67.3436 40.5 65.9991 40.5ZM39.1092 13.5H58.6655C59.4905 13.5 60.3003 13.5563 61.0948 13.6125C61.0948 13.5703 61.1101 13.5422 61.1101 13.5C61.1101 6.04688 54.5404 0 46.4428 0C38.3453 0 31.7756 6.04688 31.7756 13.5C31.7756 13.7953 31.852 14.0766 31.8672 14.3719C34.1896 13.8234 36.6035 13.5 39.1092 13.5Z" fill="#FFFBFE"/>
</svg>
