<svg width="75" height="86" viewBox="0 0 75 86" fill="none" xmlns="http://www.w3.org/2000/svg">
<path d="M37.5 42.8572C49.336 42.8572 58.9286 33.2645 58.9286 21.4286C58.9286 9.59264 49.336 0 37.5 0C25.6641 0 16.0714 9.59264 16.0714 21.4286C16.0714 33.2645 25.6641 42.8572 37.5 42.8572ZM52.5 48.2143H49.7043C45.9878 49.9219 41.8527 50.8929 37.5 50.8929C33.1473 50.8929 29.029 49.9219 25.2958 48.2143H22.5C10.0781 48.2143 0 58.2925 0 70.7143V77.6786C0 82.115 3.59933 85.7143 8.03572 85.7143H66.9643C71.4007 85.7143 75 82.115 75 77.6786V70.7143C75 58.2925 64.9219 48.2143 52.5 48.2143Z" fill="#FFFBFE"/>
</svg>
